<?xml version="1.0" encoding="UTF-8" standalone="no"?>
<!DOCTYPE svg PUBLIC "-//W3C//DTD SVG 1.1//EN" "http://www.w3.org/Graphics/SVG/1.1/DTD/svg11.dtd">
<!-- Generated by Microsoft Visio, SVG Export state-transitions.svg Page-1 -->
<svg xmlns="http://www.w3.org/2000/svg" xmlns:xlink="http://www.w3.org/1999/xlink" xmlns:ev="http://www.w3.org/2001/xml-events"
		width="8.45307in" height="3.27173in" viewBox="0 0 608.621 235.564" xml:space="preserve" color-interpolation-filters="sRGB"
		class="st7">
	<style type="text/css">
	<![CDATA[
		.st1 {fill:none;stroke:#5b9bd5;stroke-width:2.25}
		.st2 {fill:#759fcc;font-family:Calibri;font-size:0.833336em}
		.st3 {marker-end:url(#mrkr4-18);stroke:#5b9bd5;stroke-linecap:round;stroke-linejoin:round;stroke-width:1}
		.st4 {fill:#5b9bd5;fill-opacity:1;stroke:#5b9bd5;stroke-opacity:1;stroke-width:0.28409090909091}
		.st5 {fill:#e9fbe9;stroke:none;stroke-linecap:butt;stroke-width:7.2}
		.st6 {fill:#4f87bb;font-family:Calibri;font-size:0.833336em}
		.st7 {fill:none;fill-rule:evenodd;font-size:12px;overflow:visible;stroke-linecap:square;stroke-miterlimit:3}
	]]>
	</style>

	<defs id="Markers">
		<g id="lend4">
			<path d="M 2 1 L 0 0 L 2 -1 L 2 1 " style="stroke:none"/>
		</g>
		<marker id="mrkr4-18" class="st4" refX="-7.04" orient="auto" markerUnits="strokeWidth" overflow="visible">
			<use xlink:href="#lend4" transform="scale(-3.52,-3.52) "/>
		</marker>
	</defs>
	<g>
		<title>Page-1</title>
		<g id="shape1-1" transform="translate(88.871,-111.938)">
			<title>Circle</title>
			<desc>“created”</desc>
			<path d="M0 201.25 A34.3125 34.3125 0 0 1 68.62 201.25 A34.3125 34.3125 0 1 1 0 201.25 Z" class="st1"/>
			<text x="14.6" y="204.25" class="st2">“created”</text>		</g>
		<g id="shape2-4" transform="translate(238.496,-111.938)">
			<title>Circle.2</title>
			<desc>“interactive”</desc>
			<path d="M0 201.25 A34.3125 34.3125 0 0 1 68.62 201.25 A34.3125 34.3125 0 1 1 0 201.25 Z" class="st1"/>
			<text x="8.37" y="204.25" class="st2">“interactive”</text>		</g>
		<g id="shape4-7" transform="translate(537.746,-111.938)">
			<title>Circle.4</title>
			<desc>“closed”</desc>
			<path d="M0 201.25 A34.3125 34.3125 0 0 1 68.62 201.25 A34.3125 34.3125 0 1 1 0 201.25 Z" class="st1"/>
			<text x="17.16" y="204.25" class="st2">“closed”</text>		</g>
		<g id="shape6-10" transform="translate(388.121,-2.25)">
			<title>Circle.6</title>
			<desc>“delegated”</desc>
			<path d="M0 201.25 A34.3125 34.3125 0 0 1 68.62 201.25 A34.3125 34.3125 0 1 1 0 201.25 Z" class="st1"/>
			<text x="9.84" y="204.25" class="st2">“delegated”</text>		</g>
		<g id="shape7-13" transform="translate(157.496,-137.25)">
			<title>Dynamic connector</title>
			<desc>show()</desc>
			<path d="M0 226.56 L73.96 226.56" class="st3"/>
			<rect x="26.6742" y="220.565" width="27.6515" height="12.0001" class="st5"/>
			<text x="26.67" y="229.56" class="st6">show()</text>		</g>
		<g id="shape15-21" transform="translate(307.121,-137.25)">
			<title>Dynamic connector.15</title>
			<desc>User accepts request</desc>
			<path d="M0 226.56 L223.58 226.56" class="st3"/>
			<rect x="72.6852" y="220.565" width="85.2547" height="12.0001" class="st5"/>
			<text x="72.69" y="229.56" class="st6">User accepts request</text>		</g>
		<g id="shape16-28" transform="translate(297.074,-121.984)">
			<title>Dynamic connector.16</title>
			<desc>User Agent delegates UX</desc>
			<path d="M0 235.56 L95.07 293.08" class="st3"/>
			<rect x="0.304544" y="260.142" width="100.485" height="12.0001" class="st5"/>
			<text x="0.3" y="269.14" class="st6">User Agent delegates UX</text>		</g>
		<g id="shape18-35" transform="translate(446.699,-60.8283)">
			<title>Dynamic connector.18</title>
			<desc>User accepts request</desc>
			<path d="M0 235.56 L95.07 178.05" class="st3"/>
			<rect x="7.91944" y="198.987" width="85.2547" height="12.0001" class="st5"/>
			<text x="7.92" y="207.99" class="st6">User accepts request</text>		</g>
		<g id="shape19-42" transform="translate(272.808,-171.563)">
			<title>Dynamic connector.19</title>
			<desc>abort() or error</desc>
			<path d="M0 226.56 L0 181.56 L299.25 181.56 L299.25 219.52" class="st3"/>
			<rect x="118.522" y="175.565" width="62.2068" height="12.0001" class="st5"/>
			<text x="118.52" y="184.56" class="st6">abort() or error</text>		</g>
		<g id="shape21-49" transform="translate(7.87096,-137.25)">
			<title>Dynamic connector.21</title>
			<desc>Constructor</desc>
			<path d="M0 226.56 L73.96 226.56" class="st3"/>
			<rect x="16.4009" y="220.565" width="48.1984" height="12.0001" class="st5"/>
			<text x="16.4" y="229.56" class="st6">Constructor</text>		</g>
	</g>
</svg>
