<?xml version="1.0" encoding="UTF-8" standalone="no"?>
<!DOCTYPE svg PUBLIC "-//W3C//DTD SVG 1.1//EN" "http://www.w3.org/Graphics/SVG/1.1/DTD/svg11.dtd">
<!-- Generated by Microsoft Visio, SVG Export PaymentRequest-API-v3.svg Page-1 -->
<svg xmlns="http://www.w3.org/2000/svg" xmlns:xlink="http://www.w3.org/1999/xlink" xmlns:ev="http://www.w3.org/2001/xml-events"
		width="7.20313in" height="1.74829in" viewBox="0 0 518.625 125.877" xml:space="preserve" color-interpolation-filters="sRGB"
		class="st7">
	<style type="text/css">
	<![CDATA[
		.st1 {fill:none;stroke:#5b9bd5;stroke-width:2.25}
		.st2 {fill:#759fcc;font-family:Calibri;font-size:0.833336em}
		.st3 {marker-end:url(#mrkr4-15);stroke:#5b9bd5;stroke-linecap:round;stroke-linejoin:round;stroke-width:1}
		.st4 {fill:#5b9bd5;fill-opacity:1;stroke:#5b9bd5;stroke-opacity:1;stroke-width:0.28409090909091}
		.st5 {fill:#ffffff;stroke:none;stroke-linecap:butt;stroke-width:7.2}
		.st6 {fill:#4f87bb;font-family:Calibri;font-size:0.833336em}
		.st7 {fill:none;fill-rule:evenodd;font-size:12px;overflow:visible;stroke-linecap:square;stroke-miterlimit:3}
	]]>
	</style>

	<defs id="Markers">
		<g id="lend4">
			<path d="M 2 1 L 0 0 L 2 -1 L 2 1 " style="stroke:none"/>
		</g>
		<marker id="mrkr4-15" class="st4" refX="-7.04" orient="auto" markerUnits="strokeWidth" overflow="visible">
			<use xlink:href="#lend4" transform="scale(-3.52,-3.52) "/>
		</marker>
	</defs>
	<g>
		<title>Page-1</title>
		<g id="shape1-1" transform="translate(88.871,-2.25)">
			<title>Circle</title>
			<desc>“created”</desc>
			<path d="M0 91.56 A34.3125 34.3125 0 0 1 68.62 91.56 A34.3125 34.3125 0 1 1 0 91.56 Z" class="st1"/>
			<text x="14.6" y="94.56" class="st2">“created”</text>		</g>
		<g id="shape2-4" transform="translate(238.496,-2.25)">
			<title>Circle.2</title>
			<desc>“interactive”</desc>
			<path d="M0 91.56 A34.3125 34.3125 0 0 1 68.62 91.56 A34.3125 34.3125 0 1 1 0 91.56 Z" class="st1"/>
			<text x="8.37" y="94.56" class="st2">“interactive”</text>		</g>
		<g id="shape4-7" transform="translate(447.75,-2.25)">
			<title>Circle.4</title>
			<desc>“closed”</desc>
			<path d="M0 91.56 A34.3125 34.3125 0 0 1 68.62 91.56 A34.3125 34.3125 0 1 1 0 91.56 Z" class="st1"/>
			<text x="17.16" y="94.56" class="st2">“closed”</text>		</g>
		<g id="shape7-10" transform="translate(157.496,-27.5625)">
			<title>Dynamic connector</title>
			<desc>show()</desc>
			<path d="M0 116.88 L73.96 116.88" class="st3"/>
			<rect x="26.6742" y="110.877" width="27.6515" height="12.0001" class="st5"/>
			<text x="26.67" y="119.88" class="st6">show()</text>		</g>
		<g id="shape15-18" transform="translate(307.121,-27.5625)">
			<title>Dynamic connector.15</title>
			<desc>User accepts request</desc>
			<path d="M0 116.88 L133.59 116.88" class="st3"/>
			<rect x="27.6873" y="110.877" width="85.2547" height="12.0001" class="st5"/>
			<text x="27.69" y="119.88" class="st6">User accepts request</text>		</g>
		<g id="shape19-25" transform="translate(272.808,-61.875)">
			<title>Dynamic connector.19</title>
			<desc>abort() or error</desc>
			<path d="M0 116.88 L0 71.88 L209.25 71.88 L209.25 109.84" class="st3"/>
			<rect x="73.5237" y="65.877" width="62.2068" height="12.0001" class="st5"/>
			<text x="73.52" y="74.88" class="st6">abort() or error</text>		</g>
		<g id="shape21-32" transform="translate(7.87096,-27.5625)">
			<title>Dynamic connector.21</title>
			<desc>Constructor</desc>
			<path d="M0 116.88 L73.96 116.88" class="st3"/>
			<rect x="16.4009" y="110.877" width="48.1984" height="12.0001" class="st5"/>
			<text x="16.4" y="119.88" class="st6">Constructor</text>		</g>
	</g>
</svg>
