<?xml version="1.0" encoding="UTF-8"?>
<svg width="792px" height="208px" viewBox="0 0 792 208" version="1.1" xmlns="http://www.w3.org/2000/svg" xmlns:xlink="http://www.w3.org/1999/xlink">
    <!-- Generator: Sketch 46.2 (44496) - http://www.bohemiancoding.com/sketch -->
    <title>Untitled 6</title>
    <desc>Created with Sketch.</desc>
    <defs></defs>
    <g id="Page-1" stroke="none" stroke-width="1" fill="none" fill-rule="evenodd">
        <path d="M1.5,100.5 L123.5,100.5" id="Line" stroke="#000000" fill="#000000" stroke-linecap="square"></path>
        <path id="Line-decoration-1" d="M123.5,100.5 L112.7,97.5 L112.7,103.5 L123.5,100.5 Z" stroke="#000000" fill="#000000" stroke-linecap="square"></path>
        <path d="M232.5,100.5 L342.5,100.5" id="Line" stroke="#000000" fill="#000000" stroke-linecap="square"></path>
        <path id="Line-decoration-1" d="M342.5,100.5 L331.7,97.5 L331.7,103.5 L342.5,100.5 Z" stroke="#000000" fill="#000000" stroke-linecap="square"></path>
        <path d="M398.5,193.5 L398.5,156.5" id="Line" stroke="#000000" fill="#000000" stroke-linecap="square"></path>
        <path id="Line-decoration-1" d="M398.5,156.5 L395.5,167.3 L401.5,167.3 L398.5,156.5 Z" stroke="#000000" fill="#000000" stroke-linecap="square"></path>
        <path d="M462.5,102.5 L681.5,102.5" id="Line" stroke="#000000" fill="#000000" stroke-linecap="square"></path>
        <path id="Line-decoration-1" d="M681.5,102.5 L670.7,99.5 L670.7,105.5 L681.5,102.5 Z" stroke="#000000" fill="#000000" stroke-linecap="square"></path>
        <rect id="Rectangle" stroke="#000000" x="398.5" y="13.5" width="340" height="182"></rect>
        <g id="created" transform="translate(127.000000, 48.000000)">
            <circle id="Oval" stroke="#000000" fill="#FFFFFF" cx="52.5" cy="52.5" r="52.5"></circle>
            <text id="&quot;created&quot;" font-family="Helvetica" font-size="16" font-weight="normal" fill="#000000">
                <a xlink:href="#dfn-created" target="_parent"><tspan x="20.1367188" y="58">"created"</tspan></a>
            </text>
        </g>
        <g id="show()" transform="translate(252.000000, 89.000000)">
            <rect id="Rectangle-2" fill="#FFFFFF" x="0" y="0" width="58" height="24"></rect>
            <text font-family="CourierNewPSMT, Courier New" font-size="16" font-weight="normal" fill="#000000">
                <tspan x="0.6953125" y="15">show()</tspan>
            </text>
        </g>
        <g id="Group-3" transform="translate(501.000000, 0.000000)">
            <rect id="Rectangle-3" fill="#FFFFFF" x="0" y="0" width="136" height="24"></rect>
            <text id="abort()-or-error" font-family="CourierNewPSMT, Courier New" font-size="16" font-weight="normal" fill="#000000">
                <tspan x="6.4453125" y="15">abort()</tspan>
                <tspan x="73.65625" y="15" font-family="Helvetica"> or error</tspan>
            </text>
        </g>
        <g id="Group" transform="translate(410.000000, 184.000000)">
            <rect id="Rectangle-3" fill="#FFFFFF" x="0" y="0" width="317" height="24"></rect>
            <text id="PaymentResponse.prot" font-family="CourierNewPSMT, Courier New" font-size="16" font-weight="normal" fill="#000000">
                <tspan x="0.07421875" y="16">PaymentResponse.prototype.retry()</tspan>
            </text>
        </g>
        <text id="User-accepts-payment" font-family="Helvetica" font-size="16" font-weight="normal" fill="#000000">
            <tspan x="504.316406" y="99">User accepts </tspan>
            <tspan x="491.410156" y="118">payment request</tspan>
        </text>
        <g id="Group-2" transform="translate(686.000000, 19.000000)">
            <path d="M52.5,0.5 L52.5,29.5" id="Line" stroke="#000000" fill="#000000" stroke-linecap="square"></path>
            <path id="Line-decoration-1" d="M52.5,29.5 L55.5,18.7 L49.5,18.7 L52.5,29.5 Z" stroke="#000000" fill="#000000" stroke-linecap="square"></path>
            <ellipse id="Oval" stroke="#000000" fill="#FFFFFF" cx="52.5" cy="83.6996198" rx="52.5" ry="52.6996198"></ellipse>
            <text id="&quot;closed&quot;" font-family="Helvetica" font-size="16" font-weight="normal" fill="#000000">
                <tspan x="24.1953125" y="89">"closed"</tspan>
            </text>
        </g>
        <g id="Constructor" transform="translate(14.000000, 91.000000)">
            <rect id="whitebox" fill="#FFFFFF" x="0" y="0" width="90" height="19"></rect>
            <text font-family="Helvetica" font-size="16" font-weight="normal" fill="#000000">
                <tspan x="3.15234375" y="15">Constructor</tspan>
            </text>
        </g>
        <g id="interactive" transform="translate(348.000000, 50.000000)">
            <ellipse id="Oval" stroke="#000000" fill="#FFFFFF" cx="52.5" cy="52" rx="52.5" ry="52"></ellipse>
            <text id="&quot;interactive&quot;" font-family="Helvetica" font-size="16" font-weight="normal" fill="#000000">
                <tspan x="11.359375" y="57.5">"interactive"</tspan>
            </text>
        </g>
    </g>
</svg>