<?xml version="1.0" encoding="UTF-8" standalone="no"?>
<!DOCTYPE svg PUBLIC "-//W3C//DTD SVG 1.1//EN" "http://www.w3.org/Graphics/SVG/1.1/DTD/svg11.dtd">
<!-- Generated by Microsoft Visio, SVG Export doc-arch.svg Page-1 -->
<svg xmlns="http://www.w3.org/2000/svg" xmlns:xlink="http://www.w3.org/1999/xlink" xmlns:ev="http://www.w3.org/2001/xml-events"
		width="9.70833in" height="6.4592in" viewBox="0 0 698.999 465.063" xml:space="preserve" color-interpolation-filters="sRGB"
		class="st10">
	<style type="text/css">
	<![CDATA[
		.st1 {fill:#ffffff;stroke:#70ad47;stroke-width:0.75}
		.st2 {fill:#70ad47;font-family:Calibri;font-size:0.833336em}
		.st3 {fill:none;stroke:none;stroke-width:0.25}
		.st4 {fill:#5b9bd5;font-family:Calibri;font-size:0.833336em}
		.st5 {font-size:1em}
		.st6 {marker-end:url(#mrkr4-26);stroke:#5b9bd5;stroke-linecap:round;stroke-linejoin:round;stroke-width:1}
		.st7 {fill:#5b9bd5;fill-opacity:1;stroke:#5b9bd5;stroke-opacity:1;stroke-width:0.28409090909091}
		.st8 {fill:url(#grad0-30);stroke:#4f87bb;stroke-width:0.75}
		.st9 {fill:#4f87bb;font-family:Calibri;font-size:0.833336em}
		.st10 {fill:none;fill-rule:evenodd;font-size:12px;overflow:visible;stroke-linecap:square;stroke-miterlimit:3}
	]]>
	</style>

	<defs id="Patterns_And_Gradients">
		<linearGradient id="grad0-30" x1="0" y1="0" x2="1" y2="0" gradientTransform="rotate(60 0.5 0.5)">
			<stop offset="0" stop-color="#e9eff7" stop-opacity="1"/>
			<stop offset="0.24" stop-color="#f4f7fb" stop-opacity="1"/>
			<stop offset="0.54" stop-color="#feffff" stop-opacity="1"/>
		</linearGradient>
	</defs>
	<defs id="Markers">
		<g id="lend4">
			<path d="M 2 1 L 0 0 L 2 -1 L 2 1 " style="stroke:none"/>
		</g>
		<marker id="mrkr4-26" class="st7" refX="-7.04" orient="auto" markerUnits="strokeWidth" overflow="visible">
			<use xlink:href="#lend4" transform="scale(-3.52,-3.52) "/>
		</marker>
	</defs>
	<g>
		<title>Page-1</title>
		<g id="shape77-1" transform="translate(529.5,-99.75)">
			<title>Rounded Rectangle.77</title>
			<desc>Payment Request Messages</desc>
			<path d="M15.07 465.06 L135.67 465.06 A15.0748 15.0748 -180 0 0 150.75 449.99 L150.75 277.64 A15.0748 15.0748 -180 0
						 0 135.68 262.56 L15.08 262.56 A15.0748 15.0748 -180 0 0 0 277.64 L0 449.99 A15.0748 15.0748 -180 0 0 15.08
						 465.06 Z" class="st1"/>
			<text x="18.65" y="275.56" class="st2">Payment Request Messages</text>		</g>
		<g id="shape76-4" transform="translate(18.7497,-18.75)">
			<title>Rounded Rectangle</title>
			<desc>Registration Mechanisms</desc>
			<path d="M19.35 465.06 L174.15 465.06 A19.3497 19.3497 -180 0 0 193.5 445.71 L193.5 115.41 A19.3497 19.3497 -180 0 0
						 174.15 96.06 L19.35 96.06 A19.3497 19.3497 -180 0 0 -0 115.41 L0 445.71 A19.3497 19.3497 -180 0 0 19.35
						 465.06 Z" class="st1"/>
			<text x="45.48" y="109.06" class="st2">Registration Mechanisms</text>		</g>
		<g id="shape8-7" transform="translate(254.493,-328.688)">
			<title>Sheet.8</title>
			<desc>Payment Request API</desc>
			<rect x="0" y="346.938" width="99.3667" height="118.125" class="st3"/>
			<svg viewBox="0 0 22.48 26.16" clip="rect(7.61327 7.61332 7.61327 7.61332)" height="133.352" overflow="hidden"
					preserveAspectRatio="none" width="114.593" x="-7.61332" y="339.324">
				<defs>
					<path id="mfid101"
							d="M1.5,1.522 L1.5,24.646 L20.998,24.646 L20.998,6.388 C20.998,6.388 17.422,5.746 16.273,5.746 C16.248,4.945 16.265,5.006 16.156,1.522 L1.5,1.522 Z"/>
				</defs>
				<g>
					<g text-rendering="geometricPrecision">
						<g fill="#5a5a5a">
							<use xlink:href="#mfid101" fill-rule="evenodd" stroke="none"/>
							<defs>
								<path id="mfid102"
										d="M2,2.022 L2,24.146 L20.498,24.146 L20.498,6.246 C20.498,6.246 16.228,5.537 16.119,2.022 L2,2.022 Z"/>
							</defs>
						</g>
						<g fill="#ffffff">
							<use xlink:href="#mfid102" fill-rule="evenodd" stroke="none"/>
						</g>
					</g>
				</g>
				<!-- GetDC -->
				<!-- Released DC -->
				<defs>
					<path id="mfid103" d="M16.217,1.5 L15.824,1.5 L15.824,6.871 L20.971,6.871 L20.971,6.331 L16.217,1.5 Z"/>
				</defs>
				<mask id="mfid104">
					<use xlink:href="#mfid103" fill-rule="evenodd" fill="white" stroke="none"/>
				</mask>
				<mask id="mfid105" fill="white" stroke="none">
					<g>
						<g mask="url(#mfid104)">
							<rect width="22.48" height="26.16" id="mfid106"/>
						</g>
					</g>
				</mask>
				<defs>
					<path id="mfid107" d="M-0.010417,-0.010417 L0.064031,-0.010417 L0.064031,0.066365 L-0.010417,0.066365 Z"/>
				</defs>
				<radialGradient id="mfid108">
					<stop offset="0" stop-color="#c6c6c6"/>
					<stop offset="1" stop-color="#606060"/>
				</radialGradient>
				<g mask="url(#mfid105)">
					<g text-rendering="geometricPrecision">
						<g transform="matrix(96, 0, 0, -96, 15.824, 6.871)">
							<g fill="white">
								<mask id="mfid109" x="-0.010417" y="-0.010417" width="0.074448" height="0.076781"
										maskUnits="userSpaceOnUse">
									<rect x="-0.010417" y="-0.010417" width="0.074448" height="0.076781" stroke="none"/>
								</mask>
								<use xlink:href="#mfid107" stroke="none" mask="url(#mfid109)" fill="url(#mfid108)"/>
								<defs>
									<path id="mfid110" d="M16.324,6.371 L20.307,6.371 L16.324,2.371 L16.324,6.371 Z"/>
								</defs>
							</g>
						</g>
					</g>
				</g>
				<g>
					<g text-rendering="geometricPrecision">
						<g fill="#ffffff">
							<use xlink:href="#mfid110" fill-rule="evenodd" stroke="none"/>
						</g>
					</g>
				</g>
			</svg>
			<rect x="0" y="346.938" width="99.3667" height="118.125" class="st3"/>
			<text x="6.09" y="478.06" class="st4">Payment Request API</text>		</g>
		<g id="shape9-11" transform="translate(254.493,-148.505)">
			<title>Sheet.9</title>
			<desc>Payment Method Identifier Definition</desc>
			<rect x="0" y="346.938" width="99.3667" height="118.125" class="st3"/>
			<svg viewBox="0 0 22.48 26.16" clip="rect(7.61327 7.61332 7.61327 7.61332)" height="133.352" overflow="hidden"
					preserveAspectRatio="none" width="114.593" x="-7.61332" y="339.324">
				<defs>
					<path id="mfid111"
							d="M1.5,1.522 L1.5,24.646 L20.998,24.646 L20.998,6.388 C20.998,6.388 17.422,5.746 16.273,5.746 C16.248,4.945 16.265,5.006 16.156,1.522 L1.5,1.522 Z"/>
				</defs>
				<g>
					<g text-rendering="geometricPrecision">
						<g fill="#5a5a5a">
							<use xlink:href="#mfid111" fill-rule="evenodd" stroke="none"/>
							<defs>
								<path id="mfid112"
										d="M2,2.022 L2,24.146 L20.498,24.146 L20.498,6.246 C20.498,6.246 16.228,5.537 16.119,2.022 L2,2.022 Z"/>
							</defs>
						</g>
						<g fill="#ffffff">
							<use xlink:href="#mfid112" fill-rule="evenodd" stroke="none"/>
						</g>
					</g>
				</g>
				<!-- GetDC -->
				<!-- Released DC -->
				<defs>
					<path id="mfid113" d="M16.217,1.5 L15.824,1.5 L15.824,6.871 L20.971,6.871 L20.971,6.331 L16.217,1.5 Z"/>
				</defs>
				<mask id="mfid114">
					<use xlink:href="#mfid113" fill-rule="evenodd" fill="white" stroke="none"/>
				</mask>
				<mask id="mfid115" fill="white" stroke="none">
					<g>
						<g mask="url(#mfid114)">
							<rect width="22.48" height="26.16" id="mfid116"/>
						</g>
					</g>
				</mask>
				<defs>
					<path id="mfid117" d="M-0.010417,-0.010417 L0.064031,-0.010417 L0.064031,0.066365 L-0.010417,0.066365 Z"/>
				</defs>
				<radialGradient id="mfid118">
					<stop offset="0" stop-color="#c6c6c6"/>
					<stop offset="1" stop-color="#606060"/>
				</radialGradient>
				<g mask="url(#mfid115)">
					<g text-rendering="geometricPrecision">
						<g transform="matrix(96, 0, 0, -96, 15.824, 6.871)">
							<g fill="white">
								<mask id="mfid119" x="-0.010417" y="-0.010417" width="0.074448" height="0.076781"
										maskUnits="userSpaceOnUse">
									<rect x="-0.010417" y="-0.010417" width="0.074448" height="0.076781" stroke="none"/>
								</mask>
								<use xlink:href="#mfid117" stroke="none" mask="url(#mfid119)" fill="url(#mfid118)"/>
								<defs>
									<path id="mfid120" d="M16.324,6.371 L20.307,6.371 L16.324,2.371 L16.324,6.371 Z"/>
								</defs>
							</g>
						</g>
					</g>
				</g>
				<g>
					<g text-rendering="geometricPrecision">
						<g fill="#ffffff">
							<use xlink:href="#mfid120" fill-rule="evenodd" stroke="none"/>
						</g>
					</g>
				</g>
			</svg>
			<rect x="0" y="346.938" width="99.3667" height="118.125" class="st3"/>
			<text x="14.2" y="478.06" class="st4">Payment Method <tspan x="9.73" dy="1.2em" class="st5">Identifier Definition</tspan></text>		</g>
		<g id="shape10-16" transform="translate(67.5162,-63.75)">
			<title>Sheet.10</title>
			<desc>Payment Method Registration API</desc>
			<rect x="0" y="346.938" width="99.3667" height="118.125" class="st3"/>
			<svg viewBox="0 0 22.48 26.16" clip="rect(7.61327 7.61332 7.61327 7.61332)" height="133.352" overflow="hidden"
					preserveAspectRatio="none" width="114.593" x="-7.61332" y="339.324">
				<defs>
					<path id="mfid121"
							d="M1.5,1.522 L1.5,24.646 L20.998,24.646 L20.998,6.388 C20.998,6.388 17.422,5.746 16.273,5.746 C16.248,4.945 16.265,5.006 16.156,1.522 L1.5,1.522 Z"/>
				</defs>
				<g>
					<g text-rendering="geometricPrecision">
						<g fill="#5a5a5a">
							<use xlink:href="#mfid121" fill-rule="evenodd" stroke="none"/>
							<defs>
								<path id="mfid122"
										d="M2,2.022 L2,24.146 L20.498,24.146 L20.498,6.246 C20.498,6.246 16.228,5.537 16.119,2.022 L2,2.022 Z"/>
							</defs>
						</g>
						<g fill="#ffffff">
							<use xlink:href="#mfid122" fill-rule="evenodd" stroke="none"/>
						</g>
					</g>
				</g>
				<!-- GetDC -->
				<!-- Released DC -->
				<defs>
					<path id="mfid123" d="M16.217,1.5 L15.824,1.5 L15.824,6.871 L20.971,6.871 L20.971,6.331 L16.217,1.5 Z"/>
				</defs>
				<mask id="mfid124">
					<use xlink:href="#mfid123" fill-rule="evenodd" fill="white" stroke="none"/>
				</mask>
				<mask id="mfid125" fill="white" stroke="none">
					<g>
						<g mask="url(#mfid124)">
							<rect width="22.48" height="26.16" id="mfid126"/>
						</g>
					</g>
				</mask>
				<defs>
					<path id="mfid127" d="M-0.010417,-0.010417 L0.064031,-0.010417 L0.064031,0.066365 L-0.010417,0.066365 Z"/>
				</defs>
				<radialGradient id="mfid128">
					<stop offset="0" stop-color="#c6c6c6"/>
					<stop offset="1" stop-color="#606060"/>
				</radialGradient>
				<g mask="url(#mfid125)">
					<g text-rendering="geometricPrecision">
						<g transform="matrix(96, 0, 0, -96, 15.824, 6.871)">
							<g fill="white">
								<mask id="mfid129" x="-0.010417" y="-0.010417" width="0.074448" height="0.076781"
										maskUnits="userSpaceOnUse">
									<rect x="-0.010417" y="-0.010417" width="0.074448" height="0.076781" stroke="none"/>
								</mask>
								<use xlink:href="#mfid127" stroke="none" mask="url(#mfid129)" fill="url(#mfid128)"/>
								<defs>
									<path id="mfid130" d="M16.324,6.371 L20.307,6.371 L16.324,2.371 L16.324,6.371 Z"/>
								</defs>
							</g>
						</g>
					</g>
				</g>
				<g>
					<g text-rendering="geometricPrecision">
						<g fill="#ffffff">
							<use xlink:href="#mfid130" fill-rule="evenodd" stroke="none"/>
						</g>
					</g>
				</g>
			</svg>
			<rect x="0" y="346.938" width="99.3667" height="118.125" class="st3"/>
			<text x="14.2" y="478.06" class="st4">Payment Method <tspan x="17.26" dy="1.2em" class="st5">Registration API</tspan></text>		</g>
		<g id="shape29-21" transform="translate(295.177,-328.695)">
			<title>Dynamic connector</title>
			<path d="M9 465.06 L9 520.44" class="st6"/>
		</g>
		<g id="shape46-27" transform="translate(405.75,-176.068)">
			<title>Rectangle</title>
			<desc>Payment Method Identifier Registry (Wiki)</desc>
			<rect x="0" y="402.063" width="94.5" height="63" class="st8"/>
			<text x="11.77" y="424.56" class="st9">Payment Method <tspan x="11.05" dy="1.2em" class="st5">Identifier Registry </tspan><tspan
						x="35.2" dy="1.2em" class="st5">(</tspan>Wiki)</text>		</g>
		<g id="shape48-34" transform="translate(405.75,-216.568)">
			<title>Dynamic connector.48</title>
			<path d="M0 474.06 L-44.86 474.06" class="st6"/>
		</g>
		<g id="shape49-39" transform="translate(554.25,-148.505)">
			<title>Sheet.49</title>
			<desc>Credit Card data format</desc>
			<rect x="0" y="346.938" width="99.3667" height="118.125" class="st3"/>
			<svg viewBox="0 0 22.48 26.16" clip="rect(7.61327 7.61332 7.61327 7.61332)" height="133.352" overflow="hidden"
					preserveAspectRatio="none" width="114.593" x="-7.61332" y="339.324">
				<defs>
					<path id="mfid131"
							d="M1.5,1.522 L1.5,24.646 L20.998,24.646 L20.998,6.388 C20.998,6.388 17.422,5.746 16.273,5.746 C16.248,4.945 16.265,5.006 16.156,1.522 L1.5,1.522 Z"/>
				</defs>
				<g>
					<g text-rendering="geometricPrecision">
						<g fill="#5a5a5a">
							<use xlink:href="#mfid131" fill-rule="evenodd" stroke="none"/>
							<defs>
								<path id="mfid132"
										d="M2,2.022 L2,24.146 L20.498,24.146 L20.498,6.246 C20.498,6.246 16.228,5.537 16.119,2.022 L2,2.022 Z"/>
							</defs>
						</g>
						<g fill="#ffffff">
							<use xlink:href="#mfid132" fill-rule="evenodd" stroke="none"/>
						</g>
					</g>
				</g>
				<!-- GetDC -->
				<!-- Released DC -->
				<defs>
					<path id="mfid133" d="M16.217,1.5 L15.824,1.5 L15.824,6.871 L20.971,6.871 L20.971,6.331 L16.217,1.5 Z"/>
				</defs>
				<mask id="mfid134">
					<use xlink:href="#mfid133" fill-rule="evenodd" fill="white" stroke="none"/>
				</mask>
				<mask id="mfid135" fill="white" stroke="none">
					<g>
						<g mask="url(#mfid134)">
							<rect width="22.48" height="26.16" id="mfid136"/>
						</g>
					</g>
				</mask>
				<defs>
					<path id="mfid137" d="M-0.010417,-0.010417 L0.064031,-0.010417 L0.064031,0.066365 L-0.010417,0.066365 Z"/>
				</defs>
				<radialGradient id="mfid138">
					<stop offset="0" stop-color="#c6c6c6"/>
					<stop offset="1" stop-color="#606060"/>
				</radialGradient>
				<g mask="url(#mfid135)">
					<g text-rendering="geometricPrecision">
						<g transform="matrix(96, 0, 0, -96, 15.824, 6.871)">
							<g fill="white">
								<mask id="mfid139" x="-0.010417" y="-0.010417" width="0.074448" height="0.076781"
										maskUnits="userSpaceOnUse">
									<rect x="-0.010417" y="-0.010417" width="0.074448" height="0.076781" stroke="none"/>
								</mask>
								<use xlink:href="#mfid137" stroke="none" mask="url(#mfid139)" fill="url(#mfid138)"/>
								<defs>
									<path id="mfid140" d="M16.324,6.371 L20.307,6.371 L16.324,2.371 L16.324,6.371 Z"/>
								</defs>
							</g>
						</g>
					</g>
				</g>
				<g>
					<g text-rendering="geometricPrecision">
						<g fill="#ffffff">
							<use xlink:href="#mfid140" fill-rule="evenodd" stroke="none"/>
						</g>
					</g>
				</g>
			</svg>
			<rect x="0" y="346.938" width="99.3667" height="118.125" class="st3"/>
			<text x="16.55" y="478.06" class="st4">Credit Card data <tspan x="35.71" dy="1.2em" class="st5">format</tspan></text>		</g>
		<g id="shape50-44" transform="translate(554.283,-198.568)">
			<title>Dynamic connector.50</title>
			<path d="M0 456.06 L-46.99 456.06" class="st6"/>
		</g>
		<g id="shape68-49" transform="translate(67.5162,-234.75)">
			<title>Sheet.68</title>
			<desc>Payment Method Registration API</desc>
			<rect x="0" y="346.938" width="99.3667" height="118.125" class="st3"/>
			<svg viewBox="0 0 22.48 26.16" clip="rect(7.61327 7.61332 7.61327 7.61332)" height="133.352" overflow="hidden"
					preserveAspectRatio="none" width="114.593" x="-7.61332" y="339.324">
				<defs>
					<path id="mfid141"
							d="M1.5,1.522 L1.5,24.646 L20.998,24.646 L20.998,6.388 C20.998,6.388 17.422,5.746 16.273,5.746 C16.248,4.945 16.265,5.006 16.156,1.522 L1.5,1.522 Z"/>
				</defs>
				<g>
					<g text-rendering="geometricPrecision">
						<g fill="#5a5a5a">
							<use xlink:href="#mfid141" fill-rule="evenodd" stroke="none"/>
							<defs>
								<path id="mfid142"
										d="M2,2.022 L2,24.146 L20.498,24.146 L20.498,6.246 C20.498,6.246 16.228,5.537 16.119,2.022 L2,2.022 Z"/>
							</defs>
						</g>
						<g fill="#ffffff">
							<use xlink:href="#mfid142" fill-rule="evenodd" stroke="none"/>
						</g>
					</g>
				</g>
				<!-- GetDC -->
				<!-- Released DC -->
				<defs>
					<path id="mfid143" d="M16.217,1.5 L15.824,1.5 L15.824,6.871 L20.971,6.871 L20.971,6.331 L16.217,1.5 Z"/>
				</defs>
				<mask id="mfid144">
					<use xlink:href="#mfid143" fill-rule="evenodd" fill="white" stroke="none"/>
				</mask>
				<mask id="mfid145" fill="white" stroke="none">
					<g>
						<g mask="url(#mfid144)">
							<rect width="22.48" height="26.16" id="mfid146"/>
						</g>
					</g>
				</mask>
				<defs>
					<path id="mfid147" d="M-0.010417,-0.010417 L0.064031,-0.010417 L0.064031,0.066365 L-0.010417,0.066365 Z"/>
				</defs>
				<radialGradient id="mfid148">
					<stop offset="0" stop-color="#c6c6c6"/>
					<stop offset="1" stop-color="#606060"/>
				</radialGradient>
				<g mask="url(#mfid145)">
					<g text-rendering="geometricPrecision">
						<g transform="matrix(96, 0, 0, -96, 15.824, 6.871)">
							<g fill="white">
								<mask id="mfid149" x="-0.010417" y="-0.010417" width="0.074448" height="0.076781"
										maskUnits="userSpaceOnUse">
									<rect x="-0.010417" y="-0.010417" width="0.074448" height="0.076781" stroke="none"/>
								</mask>
								<use xlink:href="#mfid147" stroke="none" mask="url(#mfid149)" fill="url(#mfid148)"/>
								<defs>
									<path id="mfid150" d="M16.324,6.371 L20.307,6.371 L16.324,2.371 L16.324,6.371 Z"/>
								</defs>
							</g>
						</g>
					</g>
				</g>
				<g>
					<g text-rendering="geometricPrecision">
						<g fill="#ffffff">
							<use xlink:href="#mfid150" fill-rule="evenodd" stroke="none"/>
						</g>
					</g>
				</g>
			</svg>
			<rect x="0" y="346.938" width="99.3667" height="118.125" class="st3"/>
			<text x="14.2" y="478.06" class="st4">Payment Method <tspan x="17.26" dy="1.2em" class="st5">Registration API</tspan></text>		</g>
		<g id="shape74-54" transform="translate(166.876,-270.899)">
			<title>Dynamic connector.74</title>
			<path d="M0 465.06 L81.26 502.54" class="st6"/>
		</g>
		<g id="shape75-59" transform="translate(166.876,-145.33)">
			<title>Dynamic connector.75</title>
			<path d="M0 465.06 L81.24 428.24" class="st6"/>
		</g>
	</g>
</svg>
